<svg width="13" height="16" viewBox="0 0 13 16" fill="none" xmlns="http://www.w3.org/2000/svg">
<path d="M12.6625 12.6318C12.0854 11.5802 11.1403 10.3891 9.60167 9.71203C8.72168 10.3432 7.65264 10.7147 6.50016 10.7147C5.34704 10.7147 4.27799 10.3432 3.39797 9.71203C1.85936 10.3891 0.914231 11.5802 0.337519 12.6318C-0.427884 14.0265 0.172208 16 1.49594 16C2.81971 16 6.50019 16 6.50019 16C6.50019 16 10.1803 16 11.5041 16C12.8278 16 13.4279 14.0265 12.6625 12.6318Z" fill="black"/>
<path d="M6.50016 9.39503C8.76031 9.39503 10.592 7.51666 10.592 5.19997V4.19503C10.592 1.87837 8.76031 0 6.50016 0C4.23968 0 2.40773 1.87837 2.40773 4.19506V5.2C2.40773 7.51666 4.23971 9.39503 6.50016 9.39503Z" fill="black"/>
</svg>
